<svg width="192" height="48" viewBox="0 0 192 48" fill="none" xmlns="http://www.w3.org/2000/svg">
    <path d="M192 0H0V48H192V0Z" fill="#FF0000"/>
    <path d="M19.8507 15.6734C19.8507 15.5335 19.8507 15.3935 19.7108 15.3935C19.5708 15.3935 19.5708 15.3935 19.4309 15.3935L18.0315 15.8134C17.8915 15.8134 17.8915 15.9533 17.8915 16.0933C17.8915 16.2332 18.0315 16.2332 18.0315 16.2332H19.4309C19.5708 16.2332 19.5708 16.2332 19.5708 16.2332V16.0933V15.6734H19.8507ZM36.7836 29.3877C37.2035 28.9679 37.3434 28.688 37.3434 28.1282C36.7837 28.4081 36.2239 28.5481 35.3842 28.828C34.9644 28.9679 34.6845 28.828 34.1248 28.9679C33.565 29.1078 33.1452 29.3877 32.5854 29.3877C32.3055 29.3877 32.0256 29.1078 32.0256 28.828C32.1656 28.1282 33.0052 27.7084 33.7049 27.0087C34.2647 26.4489 34.5446 25.8892 34.6845 25.3294C34.6845 25.3294 34.1248 25.1895 33.565 25.1895C34.4046 24.6297 34.4046 23.7901 34.5446 23.2303C34.5446 22.9504 34.6845 22.8105 34.6845 22.8105C34.6845 22.8105 34.1248 22.6705 33.7049 22.8105C34.1248 22.1107 33.9848 21.551 34.1248 21.2711C34.1248 20.9912 34.2647 20.8513 34.2647 20.5714C33.9848 20.5714 33.9848 20.5714 33.565 20.5714C33.2851 20.5714 32.5854 20.5714 31.8857 20.9912C31.8857 20.9912 31.8857 20.7113 31.8857 20.4314C31.8857 20.4314 30.7662 20.4314 29.7866 21.1312C29.7866 21.1312 29.6466 20.8513 29.7866 20.5714C29.7866 20.5714 28.1073 20.4314 26.9877 22.3906C25.4484 22.5306 25.0285 22.8105 24.4688 23.5102C23.2093 24.7696 22.3697 28.828 20.2705 28.828C19.7108 28.828 19.2909 28.2682 19.2909 27.7084C19.2909 27.0087 20.4105 25.1895 20.8303 24.7696C22.6495 22.5306 24.6087 19.5918 24.6087 17.2128C24.6087 15.3935 23.2093 13.7142 21.3901 13.7142C20.9702 13.7142 20.2705 13.8542 20.2705 14.414C20.2705 14.9737 20.5504 14.9737 20.8303 14.9737C21.1102 14.9737 21.2501 14.9737 21.6699 14.8338C21.8099 14.8338 22.2297 14.8338 22.2297 15.1137C22.2297 15.3935 21.8099 15.3935 21.6699 15.5335C21.3901 15.5335 21.1102 15.5335 20.8303 15.5335C20.5504 15.5335 20.4105 15.6734 20.4105 15.9533C20.4105 16.3731 20.9702 16.5131 21.3901 16.5131C22.2297 16.5131 23.0694 16.793 22.9294 18.0524C22.7895 19.3119 22.0898 20.7113 21.3901 21.8309C19.5708 24.7696 16.0723 26.5889 16.0723 29.8075C16.0723 30.7871 16.4921 31.9067 17.1918 32.4664H34.1248C34.5446 32.1866 34.6845 32.0466 34.9644 31.6268C35.3842 31.207 35.3842 30.7871 35.8041 30.3673C36.2239 29.9475 36.5038 29.8075 36.7836 29.3877ZM40.702 23.93C40.702 31.9067 34.2647 38.4839 26.1481 38.4839C18.1714 38.4839 11.5941 31.9067 11.5941 23.93C11.5941 15.9533 18.1714 9.516 26.1481 9.516C34.1248 9.516 40.702 15.9533 40.702 23.93ZM43.221 23.93C43.221 14.414 35.5242 6.8571 26.1481 6.8571C16.632 6.8571 9.0752 14.5539 9.0752 23.93C9.0752 33.446 16.772 41.0029 26.1481 41.0029C35.6641 41.1428 43.221 33.446 43.221 23.93ZM66.4513 18.6122L67.7108 16.3731C65.4717 14.5539 63.3726 13.8542 60.7137 13.8542C55.6758 13.8542 51.6175 17.7726 52.1772 21.551C52.4571 24.9096 55.5358 27.1487 58.8944 28.9679C59.874 29.3877 60.2939 30.6472 59.7341 31.4868C59.3143 32.0466 58.6146 32.3265 58.0548 32.3265C57.0752 32.3265 55.116 31.207 54.2764 29.8075L52.737 31.9067C53.7166 33.0262 56.0956 35.2653 59.874 35.5451C63.9323 35.825 68.8303 33.1661 68.8303 28.2682C68.6904 26.309 67.9906 24.3498 66.3113 23.0903C65.1918 22.2507 61.9732 20.4314 61.1335 19.7317C60.1539 18.8921 60.4338 18.0524 60.7137 17.6326C61.4134 16.793 61.8332 16.793 62.6729 16.793C63.5125 16.793 65.1918 17.3527 66.4513 18.6122ZM82.6845 18.8921H88.702L87.3026 14.6938H69.2501L68.2705 18.8921H73.5883L74.9877 35.2653H81.2851L82.6845 18.8921ZM98.2181 28.5481H90.8011L94.1597 19.4519L98.2181 28.5481ZM101.157 35.1253H107.454L101.857 14.5539H91.6408L84.0839 35.1253H88.4221L89.4017 32.3265H99.8974L101.157 35.1253ZM122.568 20.4314C122.568 22.1107 121.168 23.3702 119.629 23.3702H117.95L118.51 17.3527H119.769C121.308 17.3527 122.568 18.7521 122.568 20.4314ZM117.67 26.309H118.65C120.329 26.309 122.008 27.7084 122.008 29.3877C122.008 31.067 120.609 32.4664 119.069 32.4664H117.25L117.67 26.309ZM130.405 19.172C130.265 15.6734 127.326 14.5539 124.387 14.5539H108.994L110.813 35.1253H123.827C126.906 35.1253 129.985 32.6064 129.985 29.9475C129.985 27.1486 127.886 25.3294 124.947 24.4898C127.326 24.2099 130.405 21.9708 130.405 19.172ZM140.9 35.1253L142.72 14.5539H132.784L134.603 35.1253H140.9ZM154.335 30.9271L155.734 14.5539H145.798L147.617 35.1253H158.953L159.233 30.9271H154.335ZM174.486 22.1107L169.588 30.5073C168.889 31.7667 167.209 32.0466 166.09 31.3469C164.83 30.6472 164.41 28.9679 165.25 27.5685L170.008 19.3119C170.708 18.0524 172.247 17.6326 173.507 18.3323C174.766 19.172 175.186 20.8513 174.486 22.1107ZM180.224 24.9096C180.224 19.032 175.466 14.274 169.728 14.274C163.851 14.274 159.233 19.032 159.233 24.9096C159.233 30.7871 163.991 35.5451 169.728 35.5451C175.466 35.5451 180.224 30.7871 180.224 24.9096ZM183.023 10.9154H182.183V9.37605H183.023C183.582 9.37605 184.142 9.516 184.142 10.0758C184.142 10.7755 183.582 10.9154 183.023 10.9154ZM185.122 13.8542L183.722 11.6151C184.562 11.4752 185.122 11.0554 185.122 10.2157C185.122 9.09617 184.422 8.67635 183.163 8.67635H181.203V13.8542H182.183V11.6151H182.743L184.142 13.8542H185.122ZM186.521 11.3352C186.521 13.5743 184.982 15.1137 183.023 15.1137C181.064 15.1137 179.524 13.5743 179.524 11.3352C179.524 9.23611 181.064 7.55681 183.023 7.55681C184.982 7.55681 186.521 9.09617 186.521 11.3352ZM187.641 11.3352C187.641 8.81629 185.542 6.71716 183.023 6.71716C180.504 6.71716 178.405 8.81629 178.405 11.3352C178.405 13.8542 180.504 15.9533 183.023 15.9533C185.542 15.9533 187.641 13.8542 187.641 11.3352Z" fill="white"/>
</svg>
